<svg width="123" height="27" viewBox="0 0 123 27" fill="none" xmlns="http://www.w3.org/2000/svg">
<path fill-rule="evenodd" clip-rule="evenodd" d="M13.5 -4.09518e-08C6.04367 -4.09518e-08 0 6.04478 0 13.5C0 20.9552 6.04367 27 13.5 27C20.9563 27 27 20.9552 27 13.5C27 6.04478 20.9563 -4.09518e-08 13.5 -4.09518e-08ZM25.4673 10.0713L24.1451 10.4479C16.0934 12.8757 9.96096 15.8684 5.51742 23.1617C5.33981 23.4508 5.04708 23.2955 5.09642 22.9487C5.1622 22.4846 5.22634 22.0321 5.29541 21.5894C9.39359 15.5017 15.5277 11.8633 22.4265 9.56759C22.91 9.56429 23.4001 9.56264 23.9001 9.56099L25.4032 9.55603C25.76 9.55438 25.8603 9.95902 25.4673 10.0713ZM24.1615 7.69801L22.8377 8.07457C14.7877 10.504 8.41345 13.9773 3.96991 21.2707C3.7923 21.5614 3.48971 21.5052 3.54891 21.16C4.12614 17.8222 4.75107 14.4084 6.29035 11.3529C5.39737 10.1027 4.335 8.65262 3.42393 6.61622C3.32196 6.385 3.24138 6.22315 3.18876 6.07946C3.05884 5.72272 3.30716 5.55095 3.60976 5.71116C3.91235 5.86971 5.0257 6.28756 5.86113 6.47584C7.64874 6.87717 9.46595 7.12491 11.4361 7.18767C14.7186 7.29502 18.3037 7.20253 22.5943 7.18767L24.0958 7.18271C24.4526 7.18106 24.5546 7.58735 24.1615 7.69801Z" fill="url(#paint0_linear)"/>
<path fill-rule="evenodd" clip-rule="evenodd" d="M47.1147 19.1969H43.1132C36.8852 19.2001 41.3978 6.80309 46.6667 6.80149H49.2952L52.9628 6.8031C53.9832 6.8031 55.7701 6.97919 56.6457 4.63234L58 1H49.3378C44.648 1.0016 40.9906 2.55763 38.3502 5.1334C33.8002 9.57577 32.233 16.5091 33.342 19.8324C34.3692 22.9045 37.2191 24.928 41.6363 24.968L45.0875 25H49.3326L50.3769 22.0912C51.1366 19.9797 49.4229 19.1969 47.1147 19.1969Z" fill="black"/>
<path fill-rule="evenodd" clip-rule="evenodd" d="M94.7572 13.7799L96 9.00193C92.2072 9 86.5978 9 82.8051 9C80.6226 9 79.6312 9.71815 79.2412 11.2201L78 15.9981C81.7912 15.9981 87.4022 16 91.1933 16C93.3775 16 94.3672 15.2819 94.7572 13.7799Z" fill="black"/>
<path fill-rule="evenodd" clip-rule="evenodd" d="M75.2412 20.9013L74 24.9983C77.7912 24.9983 83.4022 25 87.1933 25C89.3758 25 90.3672 24.3844 90.7572 23.0971L92 19.0017C88.2072 19 82.5978 19 78.8067 19C76.6226 19 75.6312 19.6156 75.2412 20.9013Z" fill="black"/>
<path fill-rule="evenodd" clip-rule="evenodd" d="M98.6883 5.09708L100 1.00165C95.9969 1.00165 90.0764 1 86.0732 1C83.7697 1 82.7234 1.61555 82.3117 2.90292L81 6.99835C85.0031 7 90.9236 7 94.9251 7C97.2303 7 98.2766 6.38445 98.6883 5.09708Z" fill="black"/>
<path fill-rule="evenodd" clip-rule="evenodd" d="M77.9162 5.77054C77.3338 2.08698 75.2185 1.0016 70.0972 1H60.7642L55.3313 15.8847L58.7835 15.8895C60.8374 15.8911 61.8695 15.9152 62.9629 13.1633L65.2229 6.78068L68.6922 6.78228C71.6505 6.78228 70.9761 10.2385 69.479 13.6083C68.1591 16.5779 65.8224 19.1969 63.0344 19.1969H57.249C54.9413 19.1969 53.8768 19.7924 53.4289 21.0363L52 25H56.2424L60.3895 24.968C64.0682 24.9392 67.0776 24.691 70.5997 21.7295C74.321 18.5998 78.6588 10.4723 77.9162 5.77054Z" fill="black"/>
<path fill-rule="evenodd" clip-rule="evenodd" d="M123 1H115.213L107.894 8.54898C107.041 9.42863 106.179 10.2939 105.314 11.3271H105.241L108.894 1H102.548L94 25H100.346L103.074 17.451L105.909 15.1367L108.143 21.9644C108.834 24.074 109.545 25 111.096 25H115.955L110.943 11.6038L123 1Z" fill="black"/>
<defs>
<linearGradient id="paint0_linear" x1="13.5" y1="0" x2="13.5" y2="27" gradientUnits="userSpaceOnUse">
<stop stop-color="#8EC03B"/>
<stop offset="1" stop-color="#039752"/>
</linearGradient>
</defs>
</svg>
