<svg width="24" height="25" viewBox="0 0 24 25" fill="none" xmlns="http://www.w3.org/2000/svg">
<path d="M23.9295 19.6783L22.0524 9.19561C21.6639 7.02593 19.761 5.45117 17.5279 5.45117H14.8723C15.2738 4.88809 15.5106 4.20278 15.5106 3.46353C15.5106 1.55376 13.9357 0 12 0C10.0643 0 8.48945 1.55376 8.48945 3.46357C8.48945 4.20283 8.72616 4.88813 9.12768 5.45122H6.47212C4.23901 5.45122 2.33616 7.02598 1.94761 9.19565L0.0705338 19.6783C-0.166377 21.0015 0.199753 22.3507 1.07494 23.3801C1.95018 24.4096 3.23317 25 4.5951 25H19.405C20.7669 25 22.0499 24.4096 22.9251 23.3802C23.8004 22.3507 24.1663 21.0015 23.9295 19.6783ZM12 1.47593C13.1109 1.47593 14.0146 2.36758 14.0146 3.46357C14.0146 4.55957 13.1108 5.45122 12 5.45122C10.8892 5.45122 9.9854 4.55957 9.9854 3.46357C9.9854 2.36758 10.8891 1.47593 12 1.47593ZM21.779 22.4316C21.1887 23.1259 20.3235 23.5241 19.405 23.5241H4.5951C3.67665 23.5241 2.81136 23.1259 2.22114 22.4316C1.63092 21.7374 1.38396 20.8274 1.54376 19.9351L3.42084 9.45244C3.68289 7.98921 4.96618 6.9271 6.47217 6.9271H17.528C19.034 6.9271 20.3173 7.98911 20.5793 9.45234L22.4564 19.935C22.6161 20.8274 22.3691 21.7374 21.779 22.4316Z" fill="white"/>
<path d="M9.86291 15L11.7843 13.187C12.0788 12.9092 12.0707 12.466 11.7664 12.1971C11.4621 11.9281 10.9767 11.9355 10.6822 12.2133L8.5335 14.2408V12.7002C8.5335 12.3135 8.1902 12 7.76675 12C7.3433 12 7 12.3135 7 12.7002V17.2998C7 17.6865 7.3433 18 7.76675 18C8.1902 18 8.5335 17.6865 8.5335 17.2998V15.7592L10.6822 17.7867C10.8326 17.9287 11.0328 18 11.2333 18C11.4253 18 11.6176 17.9345 11.7664 17.803C12.0707 17.5341 12.0786 17.0909 11.7843 16.813L9.86291 15Z" fill="white"/>
<path d="M16.3753 14.4976H15.4375C15.0925 14.4976 14.8128 14.8111 14.8128 15.1978C14.8128 15.5844 15.0925 15.8979 15.4375 15.8979H15.7403C15.6808 16.2956 15.3715 16.5997 15 16.5997C14.5861 16.5997 14.2493 16.2223 14.2493 15.7583V14.2416C14.2493 13.7777 14.5861 13.4002 15 13.4002C15.2328 13.4002 15.4487 13.5185 15.5923 13.7247C15.8046 14.0294 16.1972 14.0837 16.4691 13.8458C16.7411 13.6078 16.7895 13.1679 16.5772 12.8631C16.1952 12.3146 15.6203 12 15 12C13.8972 12 13 13.0056 13 14.2416V15.7584C13 16.9944 13.8972 18 15 18C16.1028 18 17 16.9944 17 15.7584V15.1979C17 14.8111 16.7203 14.4976 16.3753 14.4976Z" fill="white"/>
</svg>
