<svg width="21" height="25" viewBox="0 0 21 25" fill="none" xmlns="http://www.w3.org/2000/svg">
<path fill-rule="evenodd" clip-rule="evenodd" d="M7 9.49928C7 7.56995 8.56992 6 10.5004 6C12.4298 6 14 7.56938 14 9.49928C14 11.4292 12.4301 13 10.5004 13C8.56992 13 7 11.4295 7 9.49928ZM9 9.49948C9 10.3275 9.67303 11 10.5005 11C11.3277 11 12 10.3275 12 9.49948C12 8.67254 11.3277 8 10.5005 8C9.67303 8 9 8.6728 9 9.49948Z" fill="white"/>
<path fill-rule="evenodd" clip-rule="evenodd" d="M0 10.417C0 4.67309 4.71029 0 10.5003 0C16.2892 0 20.9997 4.67309 21 10.4172C21 11.9437 20.6689 13.4215 20.0317 14.7799C19.7359 15.3557 19.2573 16.171 18.5549 17.0421L17.4649 18.1961L11.3884 24.599C11.3884 24.5994 11.3884 24.5996 11.3883 24.5997C11.3882 24.5999 11.3879 24.5999 11.3873 24.6001C10.5343 25.4999 9.61267 24.6001 9.61267 24.6001L3.56306 18.2254C3.52437 18.1917 3.48792 18.1554 3.45143 18.119C3.42298 18.0907 3.3945 18.0623 3.36491 18.0351C1.67361 16.3218 0.871768 14.5564 0.673879 14.0776C0.231135 12.9179 0 11.6851 0 10.417ZM11.2282 22.3253L17.5063 15.7036C18.6884 14.1656 19.3129 12.3368 19.3129 10.4167C19.3129 5.596 15.3591 1.67358 10.4997 1.67358C5.64037 1.67358 1.68707 5.596 1.68707 10.4167C1.68707 12.3368 2.31135 14.1653 3.49314 15.7033L3.57599 15.8112C3.9153 16.2404 4.29472 16.6375 4.70449 16.9926L4.76333 17.0489L9.77045 22.3253L9.77414 22.3295L9.78575 22.3418C9.88602 22.4468 10.509 23.0393 11.2282 22.3253Z" fill="white"/>
</svg>
