<?xml version="1.0" encoding="utf-8"?>
<!-- Generator: Adobe Illustrator 19.2.1, SVG Export Plug-In . SVG Version: 6.00 Build 0)  -->
<svg version="1.1" id="Слой_1" xmlns="http://www.w3.org/2000/svg" xmlns:xlink="http://www.w3.org/1999/xlink" x="0px" y="0px"
	 viewBox="0 0 70 70" style="enable-background:new 0 0 70 70;" xml:space="preserve">
<style type="text/css">
	.st0{fill:#696969;}
	.st1{fill:#8BA900;}
</style>
<path class="st0" d="M49,35c0-2-0.4-3.9-1.2-5.7c-0.3-0.5-0.9-0.8-1.5-0.5c-0.6,0.3-0.8,0.9-0.6,1.5c0.7,1.5,1,3.1,1,4.8
	c0,5.4-3.6,10-8.8,11.3c-5.2,1.3-10.6-1.1-13.1-5.8c-2.5-4.7-1.5-10.6,2.5-14.1s9.9-4,14.3-1c0.5,0.4,1.3,0.2,1.6-0.3
	c0.4-0.5,0.2-1.3-0.3-1.6c-5.3-3.6-12.4-3.1-17.2,1.2c-4.8,4.3-6,11.3-3,17c3,5.7,9.5,8.6,15.7,7C44.6,47,49,41.4,49,35z"/>
<path class="st1" d="M41.2,29.5l-7.3,7.3L30,33c-0.5-0.5-1.2-0.5-1.7,0c-0.5,0.5-0.5,1.2,0,1.7l4.7,4.7c0.2,0.2,0.5,0.3,0.8,0.3
	s0.6-0.1,0.8-0.3l8.2-8.2c0.5-0.5,0.5-1.2,0-1.7C42.4,29,41.6,29,41.2,29.5z"/>
<path class="st0" d="M67,63.7L63.7,67c-0.4,0.4-1,0.7-1.7,0.7s-1.2-0.2-1.7-0.7L53,59.6c-0.4-0.4-0.7-1-0.7-1.7
	c0-0.6,0.2-1.2,0.7-1.7l3.3-3.3c0.9-0.9,2.4-0.9,3.3,0l7.4,7.4c0.5,0.5,1.2,0.5,1.7,0c0.5-0.5,0.5-1.2,0-1.7l-7.4-7.4
	c-1.5-1.4-3.8-1.7-5.6-0.7l-5.1-5.1c5.4-8,3.9-18.7-3.5-24.9c-7.4-6.1-18.3-5.6-25.1,1.2s-7.3,17.7-1.2,25.1
	c6.1,7.4,16.9,8.9,24.9,3.5l5.1,5.1c-0.4,0.7-0.6,1.5-0.7,2.3c0,1.2,0.5,2.5,1.4,3.3l7.4,7.4c0.9,0.9,2.1,1.4,3.3,1.4
	c1.2,0,2.4-0.5,3.3-1.4l3.3-3.3c0.5-0.5,0.5-1.2,0-1.6c-0.2-0.2-0.5-0.3-0.8-0.3S67.2,63.5,67,63.7z M18.7,35
	c0-7.1,4.6-13.5,11.4-15.6c6.8-2.1,14.2,0.4,18.3,6.2c4.1,5.9,3.9,13.7-0.5,19.3c-0.9,1.1-1.9,2.1-3,3c-4.9,3.8-11.6,4.4-17.2,1.7
	C22.2,46.9,18.7,41.2,18.7,35z M47.5,48.8c0.5-0.4,0.9-0.9,1.4-1.4l0.1-0.1l4.8,4.8l-1.6,1.6L47.3,49L47.5,48.8z"/>
<path class="st0" d="M15.2,44.3H2.3v-42h15.2v10.5c0,0.6,0.5,1.2,1.2,1.2H28c0.6,0,1.2-0.5,1.2-1.2V2.3h15.2v12.8
	c0,0.6,0.5,1.2,1.2,1.2c0.6,0,1.2-0.5,1.2-1.2v-14c0-0.6-0.5-1.2-1.2-1.2H1.2C0.5,0,0,0.5,0,1.2v44.3c0,0.6,0.5,1.2,1.2,1.2h14
	c0.6,0,1.2-0.5,1.2-1.2C16.3,44.9,15.8,44.3,15.2,44.3z M26.8,11.7h-7V2.3h7V11.7z"/>
<path class="st1" d="M14,29.2c0-0.6-0.5-1.2-1.2-1.2h-7c-0.6,0-1.2,0.5-1.2,1.2c0,0.6,0.5,1.2,1.2,1.2h7C13.5,30.3,14,29.8,14,29.2z
	"/>
<path class="st1" d="M5.8,32.7c-0.6,0-1.2,0.5-1.2,1.2c0,0.6,0.5,1.2,1.2,1.2h4.7c0.6,0,1.2-0.5,1.2-1.2c0-0.6-0.5-1.2-1.2-1.2H5.8z
	"/>
</svg>
