<svg width="9" height="14" viewBox="0 0 9 14" version="1.1" xmlns="http://www.w3.org/2000/svg" xmlns:xlink="http://www.w3.org/1999/xlink">
<title>Path 14</title>
<desc>Created using Figma</desc>
<g id="Canvas" transform="translate(-7056 -3148)">
<g id="Path 14">
<use xlink:href="#path0_stroke" transform="translate(7057.5 3149.5)" fill="#FFFFFF"/>
</g>
</g>
<defs>
<path id="path0_stroke" d="M 0.707107 -0.707107C 0.316583 -1.09763 -0.316583 -1.09763 -0.707107 -0.707107C -1.09763 -0.316583 -1.09763 0.316583 -0.707107 0.707107L 0.707107 -0.707107ZM 5.5 5.5L 6.20711 6.20711L 6.91421 5.5L 6.20711 4.79289L 5.5 5.5ZM -0.463056 10.0488C -0.85358 10.4394 -0.85358 11.0725 -0.463056 11.4631C -0.0725315 11.8536 0.560633 11.8536 0.951158 11.4631L -0.463056 10.0488ZM -0.707107 0.707107L 4.79289 6.20711L 6.20711 4.79289L 0.707107 -0.707107L -0.707107 0.707107ZM 4.79289 4.79289L -0.463056 10.0488L 0.951158 11.4631L 6.20711 6.20711L 4.79289 4.79289Z"/>
</defs>
</svg>
