<?xml version="1.0" encoding="utf-8"?>
<!-- Generator: Adobe Illustrator 19.2.1, SVG Export Plug-In . SVG Version: 6.00 Build 0)  -->
<svg version="1.1" id="Слой_1" xmlns="http://www.w3.org/2000/svg" xmlns:xlink="http://www.w3.org/1999/xlink" x="0px" y="0px"
	 viewBox="0 0 165 69.1" style="enable-background:new 0 0 165 69.1;" xml:space="preserve">
<style type="text/css">
	.st0{fill-rule:evenodd;clip-rule:evenodd;fill:#FFFFFF;}
	.st1{fill-rule:evenodd;clip-rule:evenodd;fill:#90AC13;}
	.st2{fill-rule:evenodd;clip-rule:evenodd;fill:#646565;}
</style>
<g>
	<path class="st0" d="M80,65.9c16.3,0,29.6-13.4,29.6-29.7c0-16.4-13.3-29.7-29.6-29.7S50.3,19.8,50.3,36.2
		C50.3,52.6,63.6,65.9,80,65.9z"/>
	<path class="st1" d="M79.6,7.5c0.2,0,0.4,0,0.6,0c-1.6,2-4.7,6.1-7.2,11.6c-2.2,4.8-3.8,10.6-4,16.7c0,0.4,0,0.7,0,1
		c0.2,6,1.8,11.9,4,16.7c2.5,5.5,5.6,9.6,7.2,11.6c-0.2,0-0.4,0-0.6,0c-1.6-2-4.7-6.1-7.3-11.7c-2.2-4.8-3.8-10.6-4-16.7
		c0-0.3,0-0.7,0-1c0.2-6,1.8-11.9,4-16.7C74.9,13.6,78,9.4,79.6,7.5z"/>
	<path class="st1" d="M80.5,7.5c-0.2,0-0.4,0-0.6,0c1.6,2,4.7,6.1,7.2,11.6c2.2,4.8,3.8,10.6,4,16.7c0,0.4,0,0.7,0,1
		c-0.2,6-1.8,11.9-4,16.7c-2.5,5.5-5.6,9.6-7.2,11.6c0.2,0,0.4,0,0.6,0c1.6-2,4.7-6.1,7.3-11.7c2.2-4.8,3.8-10.6,4-16.7
		c0-0.3,0-0.7,0-1c-0.2-6-1.8-11.9-4-16.7C85.2,13.6,82,9.4,80.5,7.5z"/>
	<path class="st1" d="M108.8,41.6c0-0.2,0-0.4,0-0.6c-2,1.6-6.1,4.7-11.6,7.2c-4.8,2.2-10.6,3.8-16.7,4c-0.4,0-0.7,0-1,0
		c-6-0.2-11.9-1.8-16.7-4c-5.5-2.5-9.6-5.6-11.6-7.2c0,0.2,0,0.4,0,0.6c2,1.6,6.1,4.7,11.7,7.3c4.8,2.2,10.6,3.8,16.7,4
		c0.3,0,0.7,0,1,0c6-0.2,11.9-1.8,16.7-4C102.7,46.3,106.9,43.1,108.8,41.6z"/>
	<path class="st1" d="M100.7,18c-1.1,0.6-2.3,1.2-3.5,1.8c-4.8,2.2-10.6,3.8-16.7,4c-0.4,0-0.7,0-1,0c-6-0.2-11.9-1.8-16.7-4
		c-1.8-0.8-3.5-1.7-5-2.6v0.6c1.5,0.9,3.2,1.8,5,2.7c4.8,2.2,10.6,3.8,16.7,4c0.3,0,0.7,0,1,0c6-0.2,11.9-1.8,16.7-4
		c1.3-0.6,2.5-1.2,3.6-1.8V18z"/>
	<path class="st1" d="M154.2,21.1c4.7,0,8.6,3.8,8.6,8.6s-4.3,8.8-8.6,14.9c-4.6-6.1-8.6-10.1-8.6-14.9S149.4,21.1,154.2,21.1z"/>
	<g>
		<defs>
			<polygon id="SVGID_1_" points="149,29.7 155.8,29.7 155.8,25.9 163,33.3 156.2,40.1 149,32.8 			"/>
		</defs>
		<clipPath id="SVGID_2_">
			<use xlink:href="#SVGID_1_"  style="overflow:visible;"/>
		</clipPath>
		<g style="clip-path:url(#SVGID_2_);">
			
				<image style="overflow:visible;" width="61" height="62" xlink:href="16FCF779.jpg"  transform="matrix(0.2302 0 0 0.2285 148.9582 25.9398)">
			</image>
		</g>
	</g>
	<polygon class="st0" points="149,29.7 152.7,29.7 152.7,25.9 155.8,25.9 155.8,29.7 159.5,29.7 159.5,32.8 155.8,32.8 155.8,36.5 
		152.7,36.5 152.7,32.8 149,32.8 	"/>
	<path class="st1" d="M80,6.5c16.4,0,29.6,13.3,29.6,29.7S96.4,65.9,80,65.9S50.3,52.6,50.3,36.2S63.6,6.5,80,6.5L80,6.5z M80,10.6
		c-14.1,0-25.6,11.5-25.6,25.6S65.9,61.8,80,61.8s25.6-11.5,25.6-25.6S94.1,10.6,80,10.6z"/>
	<path class="st0" d="M130,26.9v-0.2h10.2v3.6h5.4v15.6h-10.1h-1.5h-30.6h-1.5h-36h-1.5H54.4h-1.3H37c-0.8,0-1.5-0.1-2.2-0.4
		c-0.5-0.2-0.9-0.5-1.3-0.8c-0.4,0.3-0.9,0.6-1.3,0.8c-0.7,0.3-1.4,0.4-2.2,0.4h-9c-0.8,0-1.5-0.1-2.2-0.4c-0.7-0.3-1.3-0.7-1.8-1.2
		c-0.5-0.5-0.8-1-1.1-1.6c0-0.1-0.1-0.2-0.1-0.3h-1.7v3.6H3.8V32.3c0-0.8,0.2-1.5,0.5-2.2c0.3-0.6,0.7-1.2,1.1-1.6
		c0.5-0.5,1.1-0.9,1.8-1.2c0.7-0.3,1.4-0.4,2.2-0.4h32.2v10.8h1.3v-5.2c0-0.8,0.2-1.5,0.5-2.2c0.3-0.6,0.7-1.2,1.1-1.6
		c0.5-0.5,1.1-0.9,1.8-1.2c0.7-0.3,1.4-0.4,2.2-0.4h22.3v10.8h1.3v-5.2c0-0.8,0.2-1.5,0.5-2.2c0.3-0.6,0.7-1.2,1.1-1.6
		c0.5-0.5,1.1-0.9,1.8-1.2c0.7-0.3,1.4-0.4,2.2-0.4h7.9c0.5,0,1.1,0.1,1.6,0.3c0.5-0.2,1-0.3,1.6-0.3h7.9c0.8,0,1.5,0.1,2.2,0.4
		c0.5,0.2,0.9,0.5,1.3,0.8c0.4-0.3,0.9-0.6,1.3-0.8c0.7-0.3,1.4-0.4,2.2-0.4h9c0.8,0,1.5,0.1,2.2,0.4c0.5,0.2,0.9,0.5,1.3,0.8
		c0.4-0.3,0.9-0.6,1.3-0.8c0.7-0.3,1.4-0.4,2.2-0.4h9C129.1,26.7,129.5,26.8,130,26.9z"/>
	<path class="st2" d="M16.6,36.8h-5.4v-3.6c0-0.2,0.1-0.5,0.3-0.6c0.2-0.2,0.4-0.3,0.6-0.3h4.5v-2.7H9.4c-0.4,0-0.7,0.1-1.1,0.2
		C8,30,7.8,30.2,7.5,30.4c-0.2,0.2-0.4,0.5-0.6,0.9c-0.1,0.3-0.2,0.7-0.2,1v10.8h4.5v-3.6h5.4V36.8L16.6,36.8z M22.7,39.5v-9.9h-4.5
		v10.8c0,0.4,0.1,0.7,0.2,1c0.1,0.3,0.3,0.6,0.6,0.9c0.2,0.2,0.5,0.4,0.9,0.6c0.3,0.1,0.7,0.2,1.1,0.2h9c0.4,0,0.7-0.1,1.1-0.2
		c0.3-0.1,0.6-0.3,0.9-0.6c0.2-0.2,0.4-0.5,0.6-0.9c0.1-0.3,0.2-0.7,0.2-1V29.6h-4.5v9.9c0,0.2-0.1,0.5-0.3,0.6
		c-0.2,0.2-0.4,0.3-0.6,0.3h-3.6c-0.2,0-0.5-0.1-0.6-0.3C22.8,39.9,22.7,39.7,22.7,39.5L22.7,39.5z M38.8,29.6h-4.5v10.8
		c0,0.4,0.1,0.7,0.2,1c0.1,0.3,0.3,0.6,0.6,0.9c0.2,0.2,0.5,0.4,0.9,0.6c0.3,0.1,0.7,0.2,1.1,0.2h7.2v-2.7h-4.5
		c-0.2,0-0.5-0.1-0.6-0.3c-0.2-0.2-0.3-0.4-0.3-0.6V29.6L38.8,29.6z M55.7,36.8h-5.4v-3.6c0-0.2,0.1-0.5,0.3-0.6
		c0.2-0.2,0.4-0.3,0.6-0.3h4.5v-2.7h-7.2c-0.4,0-0.7,0.1-1.1,0.2c-0.3,0.1-0.6,0.3-0.9,0.6c-0.2,0.2-0.4,0.5-0.6,0.9
		c-0.1,0.3-0.2,0.7-0.2,1v10.8h4.5v-3.6h5.4V36.8L55.7,36.8z M57.3,43.1h4.5v-9.9h-4.5V43.1L57.3,43.1z M61.8,29.6h-4.5v2.7h4.5
		V29.6L61.8,29.6z M68,29.6h-4.5v10.8c0,0.4,0.1,0.7,0.2,1c0.1,0.3,0.3,0.6,0.6,0.9c0.2,0.2,0.5,0.4,0.9,0.6
		c0.3,0.1,0.7,0.2,1.1,0.2h7.2v-2.7h-4.5c-0.2,0-0.5-0.1-0.6-0.3C68,39.9,68,39.7,68,39.5V29.6L68,29.6z M84.9,43.1h4.5v-9.9
		c0-0.2,0.1-0.5,0.3-0.6c0.2-0.2,0.4-0.3,0.6-0.3h3.6c0.2,0,0.5,0.1,0.6,0.3c0.2,0.2,0.3,0.4,0.3,0.6v9.9h4.5V32.3
		c0-0.4-0.1-0.7-0.2-1s-0.3-0.6-0.6-0.9c-0.2-0.2-0.5-0.4-0.9-0.6c-0.3-0.1-0.7-0.2-1-0.2h-7.9c-0.3,0-0.6,0.1-0.9,0.4
		c-0.3,0.2-0.5,0.6-0.6,1.1c-0.1-0.5-0.3-0.9-0.7-1.1c-0.3-0.2-0.6-0.4-0.9-0.4h-7.9c-0.4,0-0.7,0.1-1.1,0.2
		c-0.3,0.1-0.6,0.3-0.9,0.6c-0.2,0.2-0.4,0.5-0.6,0.9c-0.1,0.3-0.2,0.7-0.2,1v10.8h4.5v-9.9c0-0.2,0.1-0.5,0.3-0.6
		c0.2-0.2,0.4-0.3,0.6-0.3H84c0.2,0,0.5,0.1,0.6,0.3c0.2,0.2,0.3,0.4,0.3,0.6V43.1L84.9,43.1z M106.9,36.5v2.7h6.1
		c0.4,0,0.8-0.1,1.1-0.2c0.3-0.1,0.5-0.3,0.7-0.6c0.2-0.2,0.3-0.5,0.4-0.9c0.1-0.3,0.1-0.7,0.1-1v-4.2c0-0.4-0.1-0.7-0.2-1
		s-0.3-0.6-0.6-0.9c-0.2-0.2-0.5-0.4-0.9-0.6c-0.3-0.1-0.7-0.2-1.1-0.2h-9c-0.4,0-0.7,0.1-1.1,0.2c-0.3,0.1-0.6,0.3-0.9,0.6
		c-0.2,0.2-0.4,0.5-0.6,0.9c-0.1,0.3-0.2,0.7-0.2,1v8.1c0,0.4,0.1,0.7,0.2,1c0.1,0.3,0.3,0.6,0.6,0.9c0.2,0.2,0.5,0.4,0.9,0.6
		c0.3,0.1,0.7,0.2,1.1,0.2h11.7v-2.7h-9c-0.3,0-0.5-0.1-0.6-0.3c-0.2-0.2-0.3-0.4-0.3-0.6v-6.3c0-0.2,0.1-0.5,0.3-0.6
		c0.2-0.2,0.4-0.3,0.6-0.3h3.6c0.2,0,0.5,0.1,0.6,0.3c0.2,0.2,0.3,0.4,0.3,0.6v3.3H106.9L106.9,36.5z M116.9,43.1h4.5v-9.9
		c0-0.2,0.1-0.5,0.3-0.6c0.2-0.2,0.4-0.3,0.6-0.3h3.6c0.2,0,0.5,0.1,0.6,0.3c0.2,0.2,0.3,0.4,0.3,0.6v9.9h4.5V32.3
		c0-0.4-0.1-0.7-0.2-1c-0.1-0.3-0.3-0.6-0.6-0.9s-0.5-0.4-0.9-0.6c-0.3-0.1-0.7-0.2-1.1-0.2h-9c-0.4,0-0.7,0.1-1.1,0.2
		c-0.3,0.1-0.6,0.3-0.9,0.6c-0.2,0.2-0.4,0.5-0.6,0.9c-0.1,0.3-0.2,0.7-0.2,1V43.1L116.9,43.1z M142.8,33.2h-5.4v-3.6h-4.5v10.8
		c0,0.4,0.1,0.7,0.2,1c0.1,0.3,0.3,0.6,0.6,0.9c0.2,0.2,0.5,0.4,0.9,0.6c0.3,0.1,0.7,0.2,1.1,0.2h7.2v-2.7h-4.5
		c-0.2,0-0.5-0.1-0.6-0.3c-0.2-0.2-0.3-0.4-0.3-0.6v-3.6h5.4V33.2z"/>
	<polygon class="st1" points="63.7,4.9 66.3,5.6 64.1,13.5 72.4,15.4 71.8,18.1 60.6,15.6 	"/>
	<polygon class="st1" points="99.4,66 96.7,65.6 97.8,57.5 89.3,56.8 89.5,54 100.9,54.9 	"/>
</g>
</svg>
