<?xml version="1.0" encoding="utf-8"?>
<!-- Generator: Adobe Illustrator 19.2.1, SVG Export Plug-In . SVG Version: 6.00 Build 0)  -->
<svg version="1.1" id="Слой_1" xmlns="http://www.w3.org/2000/svg" xmlns:xlink="http://www.w3.org/1999/xlink" x="0px" y="0px"
	 viewBox="0 0 25 25" style="enable-background:new 0 0 25 25;" xml:space="preserve">
<style type="text/css">
	.st0{fill:#696969;}
	.st1{fill:#8BA900;}
</style>
<path class="st0" d="M20.2,15.3c-0.5-0.5-1.2-0.8-1.8-0.8c-0.7,0-1.3,0.3-1.8,0.8L14.8,17c-0.1-0.1-0.3-0.1-0.4-0.2
	c-0.2-0.1-0.4-0.2-0.5-0.3c-1.6-1-3.1-2.3-4.4-4c-0.7-0.8-1.1-1.6-1.5-2.3c0.4-0.4,0.9-0.8,1.3-1.2c0.2-0.2,0.3-0.3,0.5-0.5
	c1.1-1.1,1.1-2.6,0-3.7L8.2,3.3C8,3.1,7.9,3,7.7,2.8c-0.3-0.3-0.7-0.7-1-1C6.2,1.3,5.5,1,4.9,1S3.6,1.3,3,1.8c0,0,0,0,0,0L1.2,3.6
	C0.5,4.3,0.1,5.2,0,6.1c-0.1,1.6,0.3,3,0.7,4c0.9,2.3,2.2,4.5,4.1,6.9c2.4,2.8,5.2,5,8.5,6.6c1.2,0.6,2.9,1.3,4.8,1.4
	c0.1,0,0.2,0,0.3,0c1.2,0,2.3-0.4,3.1-1.3c0,0,0,0,0,0c0.3-0.3,0.6-0.6,0.9-1c0.2-0.2,0.5-0.5,0.7-0.7c0.5-0.6,0.8-1.2,0.8-1.9
	c0-0.7-0.3-1.3-0.8-1.8L20.2,15.3z M22.1,21C22.1,21,22.1,21,22.1,21c-0.2,0.2-0.4,0.4-0.7,0.7c-0.4,0.3-0.7,0.7-1,1.1
	c-0.5,0.6-1.2,0.9-2,0.9c-0.1,0-0.2,0-0.2,0c-1.6-0.1-3.1-0.7-4.2-1.3c-3.1-1.5-5.7-3.6-8-6.2c-1.8-2.2-3.1-4.3-3.9-6.4
	C1.6,8.3,1.4,7.2,1.5,6.3c0.1-0.6,0.3-1.2,0.7-1.6l1.8-1.8c0.3-0.2,0.5-0.4,0.8-0.4c0.3,0,0.6,0.2,0.8,0.4c0,0,0,0,0,0
	c0.3,0.3,0.6,0.6,1,1C6.8,4,7,4.2,7.2,4.3l1.5,1.5c0.6,0.6,0.6,1.1,0,1.7C8.5,7.6,8.3,7.8,8.2,7.9C7.7,8.4,7.3,8.8,6.8,9.2
	c0,0,0,0,0,0c-0.5,0.5-0.4,0.9-0.3,1.2c0,0,0,0,0,0c0.4,0.9,0.9,1.8,1.7,2.8l0,0c1.5,1.8,3.1,3.3,4.8,4.3c0.2,0.1,0.4,0.3,0.7,0.4
	c0.2,0.1,0.4,0.2,0.5,0.3c0,0,0,0,0.1,0c0.2,0.1,0.4,0.1,0.5,0.1c0.4,0,0.7-0.3,0.8-0.4l1.8-1.8c0.2-0.2,0.5-0.4,0.8-0.4
	c0.3,0,0.6,0.2,0.8,0.4c0,0,0,0,0,0l3,3C22.7,19.8,22.7,20.4,22.1,21z"/>
<path class="st1" d="M13.6,6.3c1.5,0.2,2.8,0.8,3.9,1.8c1.1,0.9,1.8,2.1,2,3.4c0.1,0.3,0.4,0.5,0.7,0.5c0,0,0.1,0,0.1,0
	c0.4-0.1,0.7-0.4,0.6-0.8c-0.3-1.6-1.1-3-2.4-4.1C17.3,6,15.7,5.3,13.9,5C13.5,5,13.1,5.2,13,5.5S13.2,6.3,13.6,6.3z"/>
<path class="st1" d="M25,11.2c-0.5-2.8-1.8-5.3-3.8-7.3c-2-2-4.6-3.3-7.3-3.8c-0.4-0.1-0.8,0.2-0.8,0.6c-0.1,0.4,0.2,0.8,0.6,0.8
	c2.5,0.4,4.8,1.6,6.6,3.4c1.8,1.8,3,4.1,3.4,6.6c0.1,0.4,0.4,0.6,0.7,0.6c0,0,0.1,0,0.1,0C24.8,11.9,25.1,11.6,25,11.2z"/>
</svg>
