<?xml version="1.0" encoding="utf-8"?>
<!-- Generator: Adobe Illustrator 19.2.1, SVG Export Plug-In . SVG Version: 6.00 Build 0)  -->
<svg version="1.1" id="Слой_1" xmlns="http://www.w3.org/2000/svg" xmlns:xlink="http://www.w3.org/1999/xlink" x="0px" y="0px"
	 viewBox="0 0 21 25" style="enable-background:new 0 0 21 25;" xml:space="preserve">
<style type="text/css">
	.st0{fill:#8BA900;}
</style>
<g>
	<g>
		<path class="st0" d="M10.5,0.6c-3.4,0-6.1,2.8-6.1,6.1s2.8,6.1,6.1,6.1s6.1-2.8,6.1-6.1S13.9,0.6,10.5,0.6z M10.5,11.5
			c-2.6,0-4.8-2.1-4.8-4.8S7.9,2,10.5,2s4.8,2.1,4.8,4.8S13.1,11.5,10.5,11.5z"/>
	</g>
</g>
<g>
	<g>
		<path class="st0" d="M18.1,16.9c-1.7-1.7-3.9-2.6-6.3-2.6H9.1c-2.4,0-4.6,0.9-6.3,2.6c-1.7,1.7-2.6,3.9-2.6,6.3
			c0,0.4,0.3,0.7,0.7,0.7H20c0.4,0,0.7-0.3,0.7-0.7C20.7,20.8,19.8,18.6,18.1,16.9z M1.7,22.5c0.3-3.9,3.6-6.9,7.5-6.9h2.7
			c3.9,0,7.1,3,7.5,6.9H1.7z"/>
	</g>
</g>
</svg>
